<svg xmlns="http://www.w3.org/2000/svg" viewBox="0 0 500 500"><g id="freepik--background-complete--inject-14"><rect x="416.78" y="398.49" width="33.12" height="0.25" style="fill:#ebebeb"></rect><rect x="322.53" y="401.21" width="8.69" height="0.25" style="fill:#ebebeb"></rect><rect x="396.59" y="389.21" width="19.19" height="0.25" style="fill:#ebebeb"></rect><rect x="52.46" y="390.89" width="43.19" height="0.25" style="fill:#ebebeb"></rect><rect x="104.56" y="390.89" width="6.33" height="0.25" style="fill:#ebebeb"></rect><rect x="131.47" y="395.11" width="93.68" height="0.25" style="fill:#ebebeb"></rect><path d="M191.6,337.5H149.78a16.28,16.28,0,0,1-16.25-17.15l3.25-60.87A16.29,16.29,0,0,1,153,244.07h35.31a16.27,16.27,0,0,1,16.25,15.41l3.26,60.87A16.29,16.29,0,0,1,191.6,337.5Z" style="fill:#f5f5f5"></path><path d="M234.42,354.13H138.83a5.79,5.79,0,0,1-5.79-5.79h0a8,8,0,0,1,8-7.95h91.27a8,8,0,0,1,8,7.95h0A5.79,5.79,0,0,1,234.42,354.13Z" style="fill:#f5f5f5"></path><path d="M143.52,320.35l3.25-60.87A16.29,16.29,0,0,1,163,244.07H153a16.29,16.29,0,0,0-16.26,15.41l-3.25,60.87a16.28,16.28,0,0,0,16.25,17.15h10A16.28,16.28,0,0,1,143.52,320.35Z" style="fill:#ebebeb"></path><path d="M191.91,348.54a8.12,8.12,0,0,0-7.95-8.15H141a8,8,0,0,0-8,7.95,5.79,5.79,0,0,0,5.79,5.79l47.29.2A5.79,5.79,0,0,0,191.91,348.54Z" style="fill:#ebebeb"></path><path d="M107.29,337.5H65.48a16.28,16.28,0,0,1-16.26-17.15l3.26-60.87a16.27,16.27,0,0,1,16.25-15.41H104a16.27,16.27,0,0,1,16.25,15.41l3.26,60.87A16.28,16.28,0,0,1,107.29,337.5Z" style="fill:#f5f5f5"></path><path d="M150.11,354.13H54.52a5.78,5.78,0,0,1-5.78-5.79h0a7.94,7.94,0,0,1,7.94-7.95H148a8,8,0,0,1,8,7.95h0A5.79,5.79,0,0,1,150.11,354.13Z" style="fill:#f5f5f5"></path><path d="M59.21,320.35l3.26-60.87a16.27,16.27,0,0,1,16.25-15.41h-10a16.27,16.27,0,0,0-16.25,15.41l-3.26,60.87A16.28,16.28,0,0,0,65.48,337.5h10A16.28,16.28,0,0,1,59.21,320.35Z" style="fill:#ebebeb"></path><path d="M107.6,348.54a8.12,8.12,0,0,0-7.95-8.15h-43a7.94,7.94,0,0,0-7.94,7.95,5.78,5.78,0,0,0,5.78,5.79l47.29.2A5.79,5.79,0,0,0,107.6,348.54Z" style="fill:#ebebeb"></path><polygon points="53.01 103.47 62.21 95.92 202.41 95.92 209.64 104.09 209.64 219.59 199.59 227.56 61.03 227.56 53.01 218.88 53.01 103.47" style="fill:#f0f0f0"></polygon><path d="M202.4,95.92H189.54A11.45,11.45,0,0,1,201,107.37V216.1a11.46,11.46,0,0,1-11.45,11.46H202.4l7.24-8V104.09Z" style="fill:#fafafa"></path><path d="M198.5,93.08H64.43a14.31,14.31,0,0,0-14.28,14.3V216.1a14.29,14.29,0,0,0,14.27,14.28H198.5a12.08,12.08,0,0,0,1.71-.12,14.26,14.26,0,0,0,12.58-14.16V167.47l0-60.09A14.33,14.33,0,0,0,198.5,93.08Zm8.63,87.4V216.1a8.64,8.64,0,0,1-7.79,8.58c-.26,0-.55,0-.83,0H64.43a8.65,8.65,0,0,1-8.63-8.62V107.38a8.64,8.64,0,0,1,8.63-8.63H198.51a8.65,8.65,0,0,1,8.62,8.63v73.1Z" style="fill:#e0e0e0"></path><path d="M71.5,127s51.34,7.87,51-5.66-20.77-12.9-25.5-7.24-11.34-2.52-15.75,2.2S70.24,120.07,71.5,127Z" style="fill:#fff"></path><path d="M154.29,165s33.31,5.1,33.08-3.67-13.47-8.37-16.54-4.7-7.35-1.63-10.21,1.43S153.48,160.52,154.29,165Z" style="fill:#fff"></path><path d="M167.7,129.6s23.28,3.78,27.06-3.14-5-11-9.44-6S172.73,119.53,167.7,129.6Z" style="fill:#fff"></path><polygon points="101.32 165.31 101.32 157 80.12 157 80.12 165.31 73.51 165.31 73.51 224.82 107.93 224.82 107.93 165.31 101.32 165.31" style="fill:#e6e6e6"></polygon><rect x="75.72" y="167.52" width="4.41" height="4.41" style="fill:#fff"></rect><rect x="84.25" y="167.52" width="4.41" height="4.41" style="fill:#fff"></rect><rect x="92.78" y="167.52" width="4.41" height="4.41" style="fill:#fff;opacity:0.2"></rect><rect x="101.32" y="167.52" width="4.41" height="4.41" style="fill:#fff"></rect><rect x="75.72" y="175.52" width="4.41" height="4.41" style="fill:#fff;opacity:0.2"></rect><rect x="84.25" y="175.52" width="4.41" height="4.41" style="fill:#fff"></rect><rect x="92.78" y="175.52" width="4.41" height="4.41" style="fill:#fff"></rect><rect x="101.32" y="175.52" width="4.41" height="4.41" style="fill:#fff;opacity:0.2"></rect><rect x="75.72" y="183.53" width="4.41" height="4.41" style="fill:#fff"></rect><rect x="84.25" y="183.53" width="4.41" height="4.41" style="fill:#fff;opacity:0.2"></rect><rect x="92.78" y="183.53" width="4.41" height="4.41" style="fill:#fff"></rect><rect x="84.25" y="160.6" width="4.41" height="4.41" style="fill:#fff"></rect><rect x="92.78" y="160.6" width="4.41" height="4.41" style="fill:#fff"></rect><rect x="101.32" y="183.53" width="4.41" height="4.41" style="fill:#fff"></rect><rect x="75.72" y="191.53" width="4.41" height="4.41" style="fill:#fff"></rect><rect x="84.25" y="191.53" width="4.41" height="4.41" style="fill:#fff;opacity:0.2"></rect><rect x="92.78" y="191.53" width="4.41" height="4.41" style="fill:#fff"></rect><rect x="101.32" y="191.53" width="4.41" height="4.41" style="fill:#fff"></rect><rect x="75.72" y="199.54" width="4.41" height="4.41" style="fill:#fff"></rect><rect x="84.25" y="199.54" width="4.41" height="4.41" style="fill:#fff"></rect><rect x="92.78" y="199.54" width="4.41" height="4.41" style="fill:#fff;opacity:0.2"></rect><rect x="101.32" y="199.54" width="4.41" height="4.41" style="fill:#fff"></rect><rect x="75.72" y="207.54" width="4.41" height="4.41" style="fill:#fff"></rect><rect x="84.25" y="207.54" width="4.41" height="4.41" style="fill:#fff;opacity:0.2"></rect><rect x="92.78" y="207.54" width="4.41" height="4.41" style="fill:#fff"></rect><rect x="101.32" y="207.54" width="4.41" height="4.41" style="fill:#fff;opacity:0.2"></rect><rect x="75.72" y="215.55" width="4.41" height="4.41" style="fill:#fff;opacity:0.2"></rect><rect x="84.25" y="215.55" width="4.41" height="4.41" style="fill:#fff"></rect><rect x="92.78" y="215.55" width="4.41" height="4.41" style="fill:#fff"></rect><rect x="101.32" y="215.55" width="4.41" height="4.41" style="fill:#fff"></rect><polygon points="189.41 192.46 189.41 187.93 177.88 187.93 177.88 192.46 174.29 192.46 174.29 224.82 193.01 224.82 193.01 192.46 189.41 192.46" style="fill:#e6e6e6"></polygon><rect x="175.49" y="193.65" width="2.4" height="2.4" style="fill:#fff"></rect><rect x="180.13" y="193.65" width="2.4" height="2.4" style="fill:#fff"></rect><rect x="184.77" y="193.65" width="2.4" height="2.4" style="fill:#fff"></rect><rect x="189.41" y="193.65" width="2.4" height="2.4" style="fill:#fff"></rect><rect x="175.49" y="198.01" width="2.4" height="2.4" style="fill:#fff"></rect><rect x="180.13" y="198.01" width="2.4" height="2.4" style="fill:#fff"></rect><rect x="184.77" y="198.01" width="2.4" height="2.4" style="fill:#fff"></rect><rect x="189.41" y="198.01" width="2.4" height="2.4" style="fill:#fff;opacity:0.2"></rect><rect x="175.49" y="202.36" width="2.4" height="2.4" style="fill:#fff"></rect><rect x="180.13" y="202.36" width="2.4" height="2.4" style="fill:#fff"></rect><rect x="184.77" y="202.36" width="2.4" height="2.4" style="fill:#fff"></rect><rect x="180.13" y="189.89" width="2.4" height="2.4" style="fill:#fff"></rect><rect x="184.77" y="189.89" width="2.4" height="2.4" style="fill:#fff;opacity:0.2"></rect><rect x="189.41" y="202.36" width="2.4" height="2.4" style="fill:#fff"></rect><rect x="175.49" y="206.72" width="2.4" height="2.4" style="fill:#fff"></rect><rect x="180.13" y="206.72" width="2.4" height="2.4" style="fill:#fff"></rect><rect x="184.77" y="206.72" width="2.4" height="2.4" style="fill:#fff;opacity:0.2"></rect><rect x="189.41" y="206.72" width="2.4" height="2.4" style="fill:#fff"></rect><rect x="175.49" y="211.07" width="2.4" height="2.4" style="fill:#fff"></rect><rect x="180.13" y="211.07" width="2.4" height="2.4" style="fill:#fff"></rect><rect x="184.77" y="211.07" width="2.4" height="2.4" style="fill:#fff"></rect><rect x="189.41" y="211.07" width="2.4" height="2.4" style="fill:#fff"></rect><rect x="175.49" y="215.42" width="2.4" height="2.4" style="fill:#fff"></rect><rect x="180.13" y="215.42" width="2.4" height="2.4" style="fill:#fff"></rect><rect x="184.77" y="215.42" width="2.4" height="2.4" style="fill:#fff"></rect><rect x="189.41" y="215.42" width="2.4" height="2.4" style="fill:#fff;opacity:0.2"></rect><rect x="175.49" y="219.78" width="2.4" height="2.4" style="fill:#fff"></rect><rect x="180.13" y="219.78" width="2.4" height="2.4" style="fill:#fff"></rect><rect x="184.77" y="219.78" width="2.4" height="2.4" style="fill:#fff"></rect><rect x="189.41" y="219.78" width="2.4" height="2.4" style="fill:#fff;opacity:0.2"></rect><rect x="111.21" y="199.49" width="25" height="25.32" style="fill:#e6e6e6"></rect><rect x="112.81" y="201.09" width="3.2" height="3.2" style="fill:#fff"></rect><rect x="119.01" y="201.09" width="3.2" height="3.2" style="fill:#fff"></rect><rect x="125.21" y="201.09" width="3.2" height="3.2" style="fill:#fff;opacity:0.5"></rect><rect x="131.41" y="201.09" width="3.2" height="3.2" style="fill:#fff"></rect><rect x="112.81" y="206.91" width="3.2" height="3.2" style="fill:#fff"></rect><rect x="119.01" y="206.91" width="3.2" height="3.2" style="fill:#fff;opacity:0.5"></rect><rect x="125.21" y="206.91" width="3.2" height="3.2" style="fill:#fff"></rect><rect x="131.41" y="206.91" width="3.2" height="3.2" style="fill:#fff;opacity:0.5"></rect><rect x="112.81" y="212.73" width="3.2" height="3.2" style="fill:#fff;opacity:0.5"></rect><rect x="119.01" y="212.73" width="3.2" height="3.2" style="fill:#fff"></rect><rect x="125.21" y="212.73" width="3.2" height="3.2" style="fill:#fff;opacity:0.5"></rect><rect x="131.41" y="212.73" width="3.2" height="3.2" style="fill:#fff"></rect><rect x="112.81" y="218.54" width="3.2" height="3.2" style="fill:#fff"></rect><rect x="119.01" y="218.54" width="3.2" height="3.2" style="fill:#fff;opacity:0.5"></rect><rect x="125.21" y="218.54" width="3.2" height="3.2" style="fill:#fff;opacity:0.5"></rect><rect x="131.41" y="218.54" width="3.2" height="3.2" style="fill:#fff"></rect><rect x="254.96" y="84.38" width="194.94" height="298.14" rx="9.63" style="fill:#f5f5f5"></rect><rect x="254.13" y="347.26" width="195.78" height="20.21" style="fill:#e6e6e6"></rect><rect x="348.26" y="84.38" width="8.94" height="297.81" style="fill:#e0e0e0"></rect><path d="M324.44,96.51H280.7a10.14,10.14,0,0,0-10.15,10.15V211.49a10.15,10.15,0,0,0,10.15,10.16h43.74a10.16,10.16,0,0,0,10.15-10.16V106.66A10.15,10.15,0,0,0,324.44,96.51Zm3.65,112.43a7.37,7.37,0,0,1-7.37,7.37H284.07a7.36,7.36,0,0,1-7.36-7.37V109.43a7.36,7.36,0,0,1,7.36-7.36h36.65a7.37,7.37,0,0,1,7.37,7.36Z" style="fill:#e0e0e0"></path><path d="M328.09,109.43v99.51a7.37,7.37,0,0,1-7.37,7.37H284.07a7.36,7.36,0,0,1-7.36-7.37V109.43a7.36,7.36,0,0,1,7.36-7.36h36.65A7.37,7.37,0,0,1,328.09,109.43Z" style="fill:#f0f0f0"></path><rect x="284.35" y="179.68" width="36.45" height="36.93" style="fill:#e6e6e6"></rect><rect x="286.68" y="182.01" width="4.67" height="4.67" style="fill:#fff"></rect><rect x="295.72" y="182.01" width="4.67" height="4.67" style="fill:#fff"></rect><rect x="304.76" y="182.01" width="4.67" height="4.67" style="fill:#fff;opacity:0.5"></rect><rect x="313.8" y="182.01" width="4.67" height="4.67" style="fill:#fff"></rect><rect x="286.68" y="190.49" width="4.67" height="4.67" style="fill:#fff"></rect><rect x="295.72" y="190.49" width="4.67" height="4.67" style="fill:#fff;opacity:0.5"></rect><rect x="304.76" y="190.49" width="4.67" height="4.67" style="fill:#fff"></rect><rect x="313.8" y="190.49" width="4.67" height="4.67" style="fill:#fff;opacity:0.5"></rect><rect x="286.68" y="198.97" width="4.67" height="4.67" style="fill:#fff;opacity:0.5"></rect><rect x="295.72" y="198.97" width="4.67" height="4.67" style="fill:#fff"></rect><rect x="304.76" y="198.97" width="4.67" height="4.67" style="fill:#fff;opacity:0.5"></rect><rect x="313.8" y="198.97" width="4.67" height="4.67" style="fill:#fff"></rect><rect x="286.68" y="207.45" width="4.67" height="4.67" style="fill:#fff"></rect><rect x="295.72" y="207.45" width="4.67" height="4.67" style="fill:#fff;opacity:0.5"></rect><rect x="304.76" y="207.45" width="4.67" height="4.67" style="fill:#fff;opacity:0.5"></rect><rect x="313.8" y="207.45" width="4.67" height="4.67" style="fill:#fff"></rect><path d="M425.6,96.51H381.86a10.14,10.14,0,0,0-10.15,10.15V211.49a10.15,10.15,0,0,0,10.15,10.16H425.6a10.16,10.16,0,0,0,10.15-10.16V106.66A10.15,10.15,0,0,0,425.6,96.51Zm3.65,112.43a7.37,7.37,0,0,1-7.37,7.37H385.23a7.36,7.36,0,0,1-7.36-7.37V109.43a7.36,7.36,0,0,1,7.36-7.36h36.65a7.37,7.37,0,0,1,7.37,7.36Z" style="fill:#e0e0e0"></path><path d="M429.25,109.43v99.51a7.37,7.37,0,0,1-7.37,7.37H385.23a7.36,7.36,0,0,1-7.36-7.37V109.43a7.36,7.36,0,0,1,7.36-7.36h36.65A7.37,7.37,0,0,1,429.25,109.43Z" style="fill:#f0f0f0"></path><path d="M412.27,159.52v56.79h-27a7.36,7.36,0,0,1-7.36-7.37V159.52h6.6v-8.31h21.19v8.31Z" style="fill:#e6e6e6"></path><rect x="380.06" y="161.73" width="4.41" height="4.41" style="fill:#fff"></rect><rect x="388.59" y="161.73" width="4.41" height="4.41" style="fill:#fff"></rect><rect x="397.12" y="161.73" width="4.41" height="4.41" style="fill:#fff;opacity:0.2"></rect><rect x="405.66" y="161.73" width="4.41" height="4.41" style="fill:#fff"></rect><rect x="380.06" y="169.73" width="4.41" height="4.41" style="fill:#fff;opacity:0.2"></rect><rect x="388.59" y="169.73" width="4.41" height="4.41" style="fill:#fff"></rect><rect x="397.12" y="169.73" width="4.41" height="4.41" style="fill:#fff"></rect><rect x="405.66" y="169.73" width="4.41" height="4.41" style="fill:#fff;opacity:0.2"></rect><rect x="380.06" y="177.74" width="4.41" height="4.41" style="fill:#fff"></rect><rect x="388.59" y="177.74" width="4.41" height="4.41" style="fill:#fff;opacity:0.2"></rect><rect x="397.12" y="177.74" width="4.41" height="4.41" style="fill:#fff"></rect><rect x="388.59" y="154.81" width="4.41" height="4.41" style="fill:#fff"></rect><rect x="397.12" y="154.81" width="4.41" height="4.41" style="fill:#fff"></rect><rect x="405.66" y="177.74" width="4.41" height="4.41" style="fill:#fff"></rect><rect x="380.06" y="185.74" width="4.41" height="4.41" style="fill:#fff"></rect><rect x="388.59" y="185.74" width="4.41" height="4.41" style="fill:#fff;opacity:0.2"></rect><rect x="397.12" y="185.74" width="4.41" height="4.41" style="fill:#fff"></rect><rect x="405.66" y="185.74" width="4.41" height="4.41" style="fill:#fff"></rect><rect x="380.06" y="193.75" width="4.41" height="4.41" style="fill:#fff"></rect><rect x="388.59" y="193.75" width="4.41" height="4.41" style="fill:#fff"></rect><rect x="397.12" y="193.75" width="4.41" height="4.41" style="fill:#fff;opacity:0.2"></rect><rect x="405.66" y="193.75" width="4.41" height="4.41" style="fill:#fff"></rect><rect x="380.06" y="201.75" width="4.41" height="4.41" style="fill:#fff"></rect><rect x="388.59" y="201.75" width="4.41" height="4.41" style="fill:#fff;opacity:0.2"></rect><rect x="397.12" y="201.75" width="4.41" height="4.41" style="fill:#fff"></rect><rect x="405.66" y="201.75" width="4.41" height="4.41" style="fill:#fff;opacity:0.2"></rect><rect x="380.06" y="209.76" width="4.41" height="4.41" style="fill:#fff;opacity:0.2"></rect><rect x="388.59" y="209.76" width="4.41" height="4.41" style="fill:#fff"></rect><rect x="397.12" y="209.76" width="4.41" height="4.41" style="fill:#fff"></rect><rect x="405.66" y="209.76" width="4.41" height="4.41" style="fill:#fff"></rect><path d="M393.57,131.34s33.3,5.1,33.08-3.68-13.47-8.36-16.54-4.69-7.35-1.63-10.21,1.43S392.76,126.85,393.57,131.34Z" style="fill:#fff"></path><rect x="416.78" y="398.49" width="33.12" height="0.25" style="fill:#ebebeb"></rect><rect x="322.53" y="401.21" width="8.69" height="0.25" style="fill:#ebebeb"></rect><rect x="396.59" y="389.21" width="19.19" height="0.25" style="fill:#ebebeb"></rect><rect x="52.46" y="390.89" width="43.19" height="0.25" style="fill:#ebebeb"></rect><rect x="104.56" y="390.89" width="6.33" height="0.25" style="fill:#ebebeb"></rect><rect x="131.47" y="395.11" width="93.68" height="0.25" style="fill:#ebebeb"></rect><path d="M238.4,337.8H45.3a5.71,5.71,0,0,1-5.71-5.71V60.66A5.71,5.71,0,0,1,45.3,55H238.4a5.71,5.71,0,0,1,5.71,5.71V332.09A5.71,5.71,0,0,1,238.4,337.8ZM45.3,55.2a5.47,5.47,0,0,0-5.46,5.46V332.09a5.47,5.47,0,0,0,5.46,5.46H238.4a5.47,5.47,0,0,0,5.46-5.46V60.66a5.47,5.47,0,0,0-5.46-5.46Z" style="fill:#ebebeb"></path><path d="M454.7,337.8H261.6a5.71,5.71,0,0,1-5.71-5.71V60.66A5.71,5.71,0,0,1,261.6,55H454.7a5.71,5.71,0,0,1,5.71,5.71V332.09A5.71,5.71,0,0,1,454.7,337.8ZM261.6,55.2a5.47,5.47,0,0,0-5.46,5.46V332.09a5.47,5.47,0,0,0,5.46,5.46H454.7a5.47,5.47,0,0,0,5.46-5.46V60.66a5.47,5.47,0,0,0-5.46-5.46Z" style="fill:#ebebeb"></path><rect y="382.4" width="500" height="0.25" style="fill:#ebebeb"></rect></g><g id="freepik--Shadow--inject-14"><ellipse id="freepik--path--inject-14" cx="250" cy="412.39" rx="193.89" ry="11.32" style="fill:#f5f5f5"></ellipse></g><g id="freepik--speech-bubble--inject-14"><path d="M370,93.4H288.29a7.8,7.8,0,0,0-7.78,7.78v43.13a7.8,7.8,0,0,0,7.77,7.77h3l-2.85,5.77c-1.34,3.25.38,2.14,6.11.24l17.41-6h58a7.78,7.78,0,0,0,7.76-7.76V101.17A7.79,7.79,0,0,0,370,93.4Z" style="fill:#8CA5E0"></path><g style="opacity:0.6000000000000001"><path d="M370,93.4H288.29a7.8,7.8,0,0,0-7.78,7.78v43.13a7.8,7.8,0,0,0,7.77,7.77h3l-2.85,5.77c-1.34,3.25.38,2.14,6.11.24l17.41-6h58a7.78,7.78,0,0,0,7.76-7.76V101.17A7.79,7.79,0,0,0,370,93.4Z" style="fill:#fff"></path></g></g><g id="freepik--Text--inject-14"><path d="M307.08,120.28v14h-3.26l-6.18-7.45v7.45h-3.88v-14H297l6.18,7.46v-7.46Z" style="fill:#263238"></path><path d="M321.11,131.22v3.05H309.87v-14h11v3.06h-7.06v2.36H320v3h-6.22v2.56Z" style="fill:#263238"></path><path d="M345.05,120.28l-4.54,14h-4.23l-2.68-8.51-2.8,8.51h-4.24l-4.53-14h4.07l2.82,8.94,3-8.94h3.64l2.82,9,2.93-9Z" style="fill:#263238"></path><path d="M345.49,133l1.3-2.91a8.83,8.83,0,0,0,4.62,1.38c1.63,0,2.27-.46,2.27-1.14,0-2.22-7.95-.6-7.95-5.8,0-2.5,2-4.54,6.2-4.54a10.47,10.47,0,0,1,5.07,1.22l-1.22,2.94a8.27,8.27,0,0,0-3.87-1.08c-1.66,0-2.26.56-2.26,1.26,0,2.14,7.93.54,7.93,5.7,0,2.43-2,4.51-6.19,4.51A11,11,0,0,1,345.49,133Z" style="fill:#263238"></path><path d="M300.56,115.1v1.17h-6.79v-9.36h6.6v1.16h-5.26V111h4.69v1.13h-4.69v3Z" style="fill:#263238"></path><path d="M308.5,116.27l-2.81-3.87-2.77,3.87h-1.53l3.51-4.8-3.3-4.56h1.52l2.62,3.59,2.6-3.59h1.45l-3.3,4.52,3.54,4.84Z" style="fill:#263238"></path><path d="M310.51,111.59a4.74,4.74,0,0,1,5-4.79,4.64,4.64,0,0,1,3.56,1.46l-.87.84a3.46,3.46,0,0,0-2.63-1.11,3.6,3.6,0,1,0,0,7.19,3.47,3.47,0,0,0,2.63-1.12l.87.84a4.62,4.62,0,0,1-3.57,1.47A4.73,4.73,0,0,1,310.51,111.59Z" style="fill:#263238"></path><path d="M320.94,106.91h1.34v9.36h-1.34Z" style="fill:#263238"></path><path d="M326.94,108.07h-3.21v-1.16h7.74v1.16h-3.21v8.2h-1.32Z" style="fill:#263238"></path><path d="M332.93,106.91h1.34v9.36h-1.34Z" style="fill:#263238"></path><path d="M345.12,106.91v9.36H344l-5.61-7v7h-1.34v-9.36h1.1l5.61,7v-7Z" style="fill:#263238"></path><path d="M354.41,111.53h1.28v3.65a5.52,5.52,0,0,1-3.54,1.19,4.79,4.79,0,1,1,0-9.57,4.68,4.68,0,0,1,3.59,1.45l-.83.82a3.73,3.73,0,0,0-2.71-1.08,3.6,3.6,0,1,0,0,7.19,4,4,0,0,0,2.19-.6Z" style="fill:#263238"></path><path d="M360.15,131.56a2.43,2.43,0,0,1,2.88-2,2.44,2.44,0,0,1-.79,4.82A2.45,2.45,0,0,1,360.15,131.56Zm4.26-24.11,4.26.69L365,126.05l-2.86-.46Z" style="fill:#263238"></path><rect x="292.5" y="139.12" width="73.13" height="2.82" style="fill:#8CA5E0"></rect></g><g id="freepik--Character--inject-14"><path d="M276.65,157.29c-1.1-6.07-6.76-24.7-6.76-24.7s-3.51-.86-4.46.32L267.37,161Z" style="fill:#ce7a63"></path><path d="M262.75,126.17l8.94.28a.1.1,0,0,1,0,0c.06.6-.21,2.89-1.77,6.58l-4.5-.16-2.67-6.11-.1-.28Z" style="fill:#ce7a63"></path><path d="M269.05,120.41l-4.35.25a1.89,1.89,0,0,0-1.79,1.78l-.25,4.08,9-.07L271,122A1.91,1.91,0,0,0,269.05,120.41Z" style="fill:#ce7a63"></path><path d="M257.52,164.5l9.77-5.71,9-3.44.37,1.94a10.32,10.32,0,0,1-4.14,10.34l-11.94,8.51Z" style="fill:#ce7a63"></path><path d="M247.93,179.57C254.82,181,269,174,269,174l-2.23-14.85c-6.21,2.61-13.55,3.12-19.42,6.43C242.09,168.66,240.42,178,247.93,179.57Z" style="fill:#8CA5E0"></path><path d="M247.93,179.57C254.82,181,269,174,269,174l-2.23-14.85c-6.21,2.61-13.55,3.12-19.42,6.43C242.09,168.66,240.42,178,247.93,179.57Z" style="opacity:0.4"></path><path d="M213.8,163.35a4.21,4.21,0,0,0-3.87,4.52s0,.08,0,.12-1.94,30.83-2.39,35.75c-1,11.54-3,23.72-3,26.73l40.07,0c8.4-30.39,8.4-50.54,6.95-58.93a7,7,0,0,0-5-5.58c-1.47-.4-3.23-.85-5.1-1.24-.66-.09-1.32-.25-2-.36a146,146,0,0,0-16.71-1.27c-1.06,0-2.13,0-3.18,0C217.47,163.11,215.46,163.23,213.8,163.35Z" style="fill:#8CA5E0"></path><path d="M213.8,163.35a4.21,4.21,0,0,0-3.87,4.52s0,.08,0,.12-1.94,30.83-2.39,35.75c-1,11.54-3,23.72-3,26.73l40.07,0c8.4-30.39,8.4-50.54,6.95-58.93a7,7,0,0,0-5-5.58c-1.47-.4-3.23-.85-5.1-1.24-.66-.09-1.32-.25-2-.36a146,146,0,0,0-16.71-1.27c-1.06,0-2.13,0-3.18,0C217.47,163.11,215.46,163.23,213.8,163.35Z" style="opacity:0.4"></path><polygon points="236.68 407.55 245.2 407.55 245.56 387.84 237.04 387.84 236.68 407.55" style="fill:#ce7a63"></polygon><path d="M245.12,406.57H235.8a.71.71,0,0,0-.7.58l-1.5,7.54a1.29,1.29,0,0,0,1,1.5l.24,0c3.35-.07,8.2-.26,12.42-.26,4.93,0,5.33.27,11.1.27,3.5,0,4.38-3.53,2.91-3.85-6.69-1.46-8.28-1.62-14.11-5.18A4.08,4.08,0,0,0,245.12,406.57Z" style="fill:#263238"></path><polygon points="245.56 387.85 245.38 398.01 236.86 398.01 237.04 387.85 245.56 387.85" style="opacity:0.2"></polygon><path d="M246.25,406.29a.21.21,0,0,1-.15-.11.21.21,0,0,1,.09-.26c.38-.2,3.72-1.92,4.74-1.34a.63.63,0,0,1,.34.52,1.05,1.05,0,0,1-.35,1,3.08,3.08,0,0,1-2,.52A14.62,14.62,0,0,1,246.25,406.29Zm.62-.29c1.86.32,3.24.24,3.74-.22a.71.71,0,0,0,.22-.65.24.24,0,0,0-.12-.21,1,1,0,0,0-.38-.07A10.62,10.62,0,0,0,246.87,406Z" style="fill:#8CA5E0"></path><path d="M246.13,406.28a.27.27,0,0,1-.08-.19c0-.09.2-2.35,1.22-3.23a1.45,1.45,0,0,1,1.09-.34c.55.06.76.34.76.56.17.95-1.77,2.76-2.78,3.22h-.09Zm1.41-3.1a4.54,4.54,0,0,0-1,2.59c1-.63,2.34-2,2.24-2.61,0-.05,0-.23-.4-.23h-.12A1,1,0,0,0,247.54,403.18Z" style="fill:#8CA5E0"></path><path d="M245.53,227.08l3.58,102.72-.51,60.94a3.06,3.06,0,0,1-2.86,3.16H235.61a3,3,0,0,1-2.85-2.92c-1.21-13.67-6-35.35-3.89-60.9,0,0-8.68-61.57-9.12-82l1.64-21Z" style="fill:#8CA5E0"></path><path d="M226.18,252.9s1.13,16.85-1.71,44.24c0,0-2.47-20.14-3.83-31.16Z" style="opacity:0.2"></path><polygon points="174.42 400.89 182.55 403.43 188.77 384.72 180.64 382.19 174.42 400.89" style="fill:#ce7a63"></polygon><path d="M182.76,402.47l-8.89-2.78a.72.72,0,0,0-.84.35l-3.69,6.75a1.3,1.3,0,0,0,.53,1.74.92.92,0,0,0,.23.09c3.21.94,7.9,2.2,11.93,3.46,4.7,1.46,5,1.84,10.52,3.56,3.33,1,5.23-2.06,3.92-2.81-6-3.38-7.42-4-11.93-9.14A4.07,4.07,0,0,0,182.76,402.47Z" style="fill:#263238"></path><polygon points="188.77 384.73 185.15 395.6 177.02 393.06 180.64 382.19 188.77 384.73" style="opacity:0.2"></polygon><path d="M183.93,402.54a.19.19,0,0,1-.11-.15.19.19,0,0,1,.16-.22c.42-.08,4.12-.72,4.92.14a.63.63,0,0,1,.17.6,1.07,1.07,0,0,1-.62.82,3.22,3.22,0,0,1-2.1-.11A15,15,0,0,1,183.93,402.54Zm.67-.09c1.69.86,3,1.19,3.64.9a.7.7,0,0,0,.4-.55.24.24,0,0,0,0-.24,1.11,1.11,0,0,0-.34-.18A10.91,10.91,0,0,0,184.6,402.45Z" style="fill:#8CA5E0"></path><path d="M183.82,402.49a.24.24,0,0,1,0-.2c0-.08.9-2.18,2.13-2.72a1.4,1.4,0,0,1,1.15,0c.51.21.62.54.55.75-.12,1-2.51,2.11-3.62,2.24l-.07,0A.24.24,0,0,1,183.82,402.49Zm2.26-2.54a4.63,4.63,0,0,0-1.74,2.17c1.16-.29,2.85-1.26,2.92-1.82,0-.05,0-.23-.32-.33l-.11,0A1,1,0,0,0,186.08,400Z" style="fill:#8CA5E0"></path><path d="M233.4,227.19,212,332.49l-20.63,59.37a2.7,2.7,0,0,1-3.52,1.79l-10.57-3.88a3.25,3.25,0,0,1-1.76-3.77c3-13,5.57-34.64,15.47-57,0,0,5.91-67.44,13.85-102Z" style="fill:#8CA5E0"></path><path d="M227.86,206.48s-14.59,10.22-21.4,3.63l-.53,5.13s7,6.5,25.86-5.63Z" style="fill:#263238"></path><g style="opacity:0.1"><path d="M227.86,206.48s-14.59,10.22-21.4,3.63l-.53,5.13s7,6.5,25.86-5.63Z" style="fill:#fff"></path></g><path d="M242.45,164.77s3,4.23,0,11.19l3.62,2a17.34,17.34,0,0,0,1.4-11.08,1.71,1.71,0,0,0-1.32-1.38Z" style="fill:#263238"></path><path d="M242.45,164.77s3,4.23,0,11.19l3.62,2a17.34,17.34,0,0,0,1.4-11.08,1.71,1.71,0,0,0-1.32-1.38Z" style="fill:#fff;opacity:0.1"></path><path d="M228,208a2.84,2.84,0,0,1-1.29-2.36c0-3.44.38-12,4.93-19A55.68,55.68,0,0,1,241,175.23a2.56,2.56,0,0,1,2.3-.55l2,.49a2.36,2.36,0,0,1,1.78,2c.47,3.27,1.24,11.07-.6,18.49s-9.34,12.62-12.57,14.5a2.73,2.73,0,0,1-2.85-.07Z" style="fill:#263238"></path><path d="M242.42,179.42l2.67,1.26a3.16,3.16,0,0,1,1.81,3,37.31,37.31,0,0,1-2.72,12.45,26.51,26.51,0,0,1-5.63,8.09,3.18,3.18,0,0,1-3.78.5l-2.71-1.53Z" style="fill:#263238"></path><path d="M242.42,179.42l2.67,1.26a3.16,3.16,0,0,1,1.81,3,37.31,37.31,0,0,1-2.72,12.45,26.51,26.51,0,0,1-5.63,8.09,3.18,3.18,0,0,1-3.78.5l-2.71-1.53Z" style="fill:#fff;opacity:0.2"></path><path d="M229.06,202.59s7.95-13.89,12.08-24.75l2.59,1.31-2.16,13a5.54,5.54,0,0,1-1.28,2.72l-8.07,9.29Z" style="fill:#263238"></path><path d="M229.06,202.59s7.95-13.89,12.08-24.75l2.59,1.31-2.16,13a5.54,5.54,0,0,1-1.28,2.72l-8.07,9.29Z" style="fill:#fff;opacity:0.1"></path><path d="M240.39,192.36a.77.77,0,0,1-.8.73.77.77,0,0,1,.06-1.53A.78.78,0,0,1,240.39,192.36Z" style="fill:#263238"></path><path d="M225.76,144.39c.66,5.45,1,15.37-3,18.69,8.14,7.36,8.52,10.94,14.06,10.67,2.61-.28,3-7.8,2.13-9.63-5.23-1.69-4.9-6.12-3.55-10.22Z" style="fill:#ce7a63"></path><path d="M229.66,148.27l5.69,5.61a16.74,16.74,0,0,0-.73,2.93c-2.27-.49-5.23-3.24-5.29-5.66A7.8,7.8,0,0,1,229.66,148.27Z" style="isolation:isolate;opacity:0.2"></path><path d="M246.62,131.88c3.53.66,4.61,7.07.28,11.64S241.86,131,246.62,131.88Z" style="fill:#263238"></path><path d="M228.31,134.76c-1.46,7.16-2.67,11.28-.09,15.84,3.89,6.88,13.46,6,17-.58,3.21-5.93,5.07-16.65-1.09-21.3a10,10,0,0,0-14,1.85A9.83,9.83,0,0,0,228.31,134.76Z" style="fill:#ce7a63"></path><path d="M242.7,149.27s-2.11-1.33-8.58-3.44c0,2.34.83,4.48,4.15,5.57a3.35,3.35,0,0,0,4.32-1.84C242.63,149.46,242.67,149.37,242.7,149.27Z" style="fill:#263238"></path><path d="M237.33,149.23a6,6,0,0,1,3.26,2.2,3.69,3.69,0,0,1-2.3-.05,5.9,5.9,0,0,1-3.25-2.2A3.52,3.52,0,0,1,237.33,149.23Z" style="fill:#ba4d3c"></path><path d="M242.43,149.12a1.55,1.55,0,0,1-1.38.7,34.11,34.11,0,0,1-5.55-2.41,1.89,1.89,0,0,1-1.08-1.51A51.94,51.94,0,0,1,242.43,149.12Z" style="fill:#fafafa"></path><path d="M235,136.2a4,4,0,0,1-3.46,2.54,6.73,6.73,0,0,0-.8,5l-2.68.2a4.22,4.22,0,0,0-3.65-4.48q.86,4.41,2.1,8.72a22.09,22.09,0,0,1-6-9.39,12.58,12.58,0,0,1-.68-5.36,6.85,6.85,0,0,1,2.5-4.67,7.52,7.52,0,0,1,6.79-.74C233.16,129.32,237,131.62,235,136.2Z" style="fill:#263238"></path><path d="M223.07,140.13a7,7,0,0,0,2.16,4.85c1.78,1.66,3.79.35,4.23-1.92.4-2-.05-5.36-2.28-6.16S223,137.88,223.07,140.13Z" style="fill:#ce7a63"></path><path d="M237.93,139.94c-.16.57,0,1.12.4,1.22s.8-.28,1-.86,0-1.12-.4-1.22S238.08,139.37,237.93,139.94Z" style="fill:#263238"></path><path d="M245.34,141.35c-.16.58,0,1.12.4,1.23s.8-.29,1-.87,0-1.11-.4-1.21S245.51,140.78,245.34,141.35Z" style="fill:#263238"></path><path d="M242.81,141.07a21.54,21.54,0,0,0,1.43,5.64,3.43,3.43,0,0,1-2.88-.23Z" style="fill:#ba4d3c"></path><path d="M237.71,136.79a.33.33,0,0,0,.36,0,2.8,2.8,0,0,1,2.46-.54A.36.36,0,0,0,241,136l0-.07a.35.35,0,0,0-.2-.44h0a3.4,3.4,0,0,0-3.11.65.34.34,0,0,0-.07.48h0A.34.34,0,0,0,237.71,136.79Z" style="fill:#263238"></path><path d="M248.7,139a.3.3,0,0,0,.21,0,.36.36,0,0,0,.19-.46,3.45,3.45,0,0,0-2.37-2.12.34.34,0,0,0-.41.27h0a.34.34,0,0,0,.26.4h0a2.77,2.77,0,0,1,1.86,1.67A.34.34,0,0,0,248.7,139Z" style="fill:#263238"></path><path d="M215.52,167.35c3.27-.3,4.55.93,6.56,5.49,1.86,4.2,2.37,16.06,2.37,16.06.06,6.48.92,5.79-5.22,5.94-3.93.09-8.93.65-8.93.65S205.74,168.26,215.52,167.35Z" style="opacity:0.1"></path><path d="M263.65,189l-6.85-.79a2.52,2.52,0,0,1-2.21-3.07l3.83-18.68a1.32,1.32,0,0,1,1.43-1l8.44,1a2.51,2.51,0,0,1,2.21,3.06L267,186.56A3.11,3.11,0,0,1,263.65,189Z" style="fill:#8CA5E0"></path><path d="M263.65,189l-6.85-.79a2.52,2.52,0,0,1-2.21-3.07l3.83-18.68a1.32,1.32,0,0,1,1.43-1l8.44,1a2.51,2.51,0,0,1,2.21,3.06L267,186.56A3.11,3.11,0,0,1,263.65,189Z" style="fill:#fff;opacity:0.8"></path><path d="M264,189.37l-6.85-.79a2.51,2.51,0,0,1-2.21-3.06l3.83-18.69a1.35,1.35,0,0,1,1.43-1l8.44,1a2.52,2.52,0,0,1,2.21,3.06L267.31,187A3.1,3.1,0,0,1,264,189.37Z" style="fill:#263238"></path><path d="M264.21,178.11a1.57,1.57,0,0,1-1.68,1.22,1.28,1.28,0,0,1-1.12-1.54,1.56,1.56,0,0,1,1.68-1.22A1.28,1.28,0,0,1,264.21,178.11Z" style="fill:#fff"></path><path d="M262.17,171.7l-3-.35a1.19,1.19,0,0,1-1.05-1.45l.63-3a1.36,1.36,0,0,1,1.46-1.06l3.11.36a1.18,1.18,0,0,1,1,1.44l-.6,3A1.47,1.47,0,0,1,262.17,171.7Z" style="fill:#fff;opacity:0.30000000000000004"></path><path d="M261.94,171.42l-2.73-.32a1.19,1.19,0,0,1-1-1.44l.56-2.71a1.47,1.47,0,0,1,1.58-1.14l2.73.31a1.19,1.19,0,0,1,1,1.45l-.55,2.7A1.48,1.48,0,0,1,261.94,171.42Z" style="fill:#fff;opacity:0.1"></path><path d="M246.78,178.64l7.35-2.51-1,9.36s-6.49.66-7.22-2.73v-2.87A1.31,1.31,0,0,1,246.78,178.64Z" style="fill:#ce7a63"></path><polygon points="259.93 178.17 258.71 185.86 253.09 185.48 254.13 176.13 259.93 178.17" style="fill:#ce7a63"></polygon><path d="M217.41,172c.26,5.69.24,11.53.42,17.13,0,1.4.08,2.78.17,4.13s.2,2.65.34,3.78c.07.55.17,1.08.23,1.38,0,.15.06.22,0,.14s0-.05-.08-.11a1.53,1.53,0,0,0-.16-.22,4.94,4.94,0,0,0-.33-.37,3.45,3.45,0,0,0-.28-.26l-.35-.28a6.17,6.17,0,0,0-1.09-.57,5,5,0,0,0-1.51-.33,4.7,4.7,0,0,0-.75,0l-.37.05-.15,0a1.05,1.05,0,0,0-.24.06l-.09,0c-.17.08.05,0,.25-.05.44-.17,1-.43,1.62-.71,2.39-1.17,4.93-2.62,7.46-4l7.65-4.27c5.12-2.86,10.28-5.74,15.58-8.41h0a2.55,2.55,0,0,1,2.93,4.11c-4.29,4.17-8.77,8.06-13.37,11.84l-3.48,2.81-3.56,2.74c-2.4,1.83-4.82,3.57-7.55,5.3-.7.43-1.42.87-2.3,1.33a14.05,14.05,0,0,1-1.8.77l-.36.11-.5.12-.29.05-.51.06a8.87,8.87,0,0,1-1,0,6.85,6.85,0,0,1-2-.45,8,8,0,0,1-.88-.41,7.42,7.42,0,0,1-.7-.44l-.32-.24-.25-.21-.47-.44a8.19,8.19,0,0,1-.69-.8c-.17-.23-.32-.45-.47-.68s-.23-.39-.34-.59a15.37,15.37,0,0,1-.84-1.9,26.12,26.12,0,0,1-.82-2.91,41.79,41.79,0,0,1-.79-5c-.17-1.59-.3-3.14-.39-4.69-.15-3.08-.19-6.11-.11-9.13s.24-6,.61-9.06a6,6,0,0,1,12,.45Z" style="fill:#ce7a63"></path><path d="M206.27,167.61c-4.43,5.47-4.09,24.72-4.09,24.72l16.08-.68a61.3,61.3,0,0,0,2.24-19.89C217.92,162.24,211.63,161,206.27,167.61Z" style="fill:#8CA5E0"></path><g style="opacity:0.30000000000000004"><path d="M206.27,167.61c-4.43,5.47-4.09,24.72-4.09,24.72l16.08-.68a61.3,61.3,0,0,0,2.24-19.89C217.92,162.24,211.63,161,206.27,167.61Z"></path></g><path d="M249,135.39a1.65,1.65,0,0,0,1.67-.83,1.83,1.83,0,0,0-1-2.22c1-.16,2.67-.79,2.57-1.81s-.86-2.21-1.88-2.2a2.14,2.14,0,0,0,.08-2.79,2.2,2.2,0,0,0-2.81-.38,3,3,0,0,0-1.34-3.32,3.12,3.12,0,0,0-3.63.43,3.29,3.29,0,0,0-2.22-4.21,3.16,3.16,0,0,0-3.67,2.85,3.89,3.89,0,0,0-3.33-3.87,4,4,0,0,0-4.1,3.17,2.87,2.87,0,0,0-3.47.08,3.19,3.19,0,0,0-.91,3.56,2.39,2.39,0,0,0-2.18.57,2.83,2.83,0,0,0-.45,2.43,2.66,2.66,0,0,0,.11,4.94,15.3,15.3,0,0,0,11.09-.47c.6-.25.84.24.92.89a1.33,1.33,0,0,0,.14.48,2.13,2.13,0,0,0,2.07.76,1.18,1.18,0,0,0,.83-1.21c.15.57,0,.58.38,1a2.15,2.15,0,0,0,1.54.69,1,1,0,0,0,1-1.35c.29.62.19,1.05.72,1.49a2,2,0,0,0,1.92.4c.64-.25.47-1.63.47-1.63s.08,1.8,1.71,1.86,1.38-1.66,1.38-1.66a5.35,5.35,0,0,0,.8,1.53A2.29,2.29,0,0,0,249,135.39Z" style="fill:#263238"></path></g><g id="freepik--Symbols--inject-14"><path d="M236.54,108.25a1,1,0,0,1-1-1v-6.81a1,1,0,0,1,2,0v6.81A1,1,0,0,1,236.54,108.25Z" style="fill:#8CA5E0"></path><path d="M236.54,112a1,1,0,0,1-1-1v-.74a1,1,0,0,1,2,0V111A1,1,0,0,1,236.54,112Z" style="fill:#8CA5E0"></path><path d="M232.17,113.28a1,1,0,0,1-.86-.5l-3.79-6.55a1,1,0,1,1,1.74-1l3.78,6.55a1,1,0,0,1-.87,1.5Z" style="fill:#8CA5E0"></path><path d="M240.91,113.28a1,1,0,0,1-.86-1.5l3.8-6.55a1,1,0,0,1,1.36-.37,1,1,0,0,1,.37,1.37l-3.8,6.56A1,1,0,0,1,240.91,113.28Z" style="fill:#8CA5E0"></path></g><g id="freepik--handle-bar--inject-14"><polygon points="451.03 67.7 48.6 67.7 48.55 73.91 451.01 73.91 451.03 67.7" style="fill:#263238"></polygon><polygon points="451.5 67.7 48.5 67.7 48.63 73.91 451.26 73.91 451.5 67.7" style="fill:#fff;opacity:0.5"></polygon><path d="M93,77.37V67c0-3.18-4.93-3.19-4.93,0V77.37c0,3.18,4.93,3.18,4.93,0Z" style="fill:#8CA5E0"></path><g style="opacity:0.4"><path d="M93,77.37V67c0-3.18-4.93-3.19-4.93,0V77.37c0,3.18,4.93,3.18,4.93,0Z"></path></g><path d="M102.51,120.21l-9.23-15a2.46,2.46,0,0,0-.93-.91,3.3,3.3,0,0,0-3.56,0,2.33,2.33,0,0,0-.91.88l-9.23,15a3.15,3.15,0,0,0,2.7,4.81H99.81a3.17,3.17,0,0,0,2.7-4.81Zm-1.92,2.09a.85.85,0,0,1-.78.48H81.35a.92.92,0,0,1-.81-.48.91.91,0,0,1,0-.91l9.23-15a.85.85,0,0,1,.78-.43.87.87,0,0,1,.78.43l9.23,15A.86.86,0,0,1,100.59,122.3Z" style="fill:#8CA5E0"></path><path d="M96.8,122.1H84.35a1.8,1.8,0,0,0,0,3.6H96.8a1.8,1.8,0,0,0,0-3.6Z" style="fill:#8CA5E0"></path><g style="opacity:0.2"><path d="M96.8,122.1H84.35a1.8,1.8,0,0,0,0,3.6H96.8a1.8,1.8,0,0,0,0-3.6Z"></path></g><path d="M92.38,104.12V77.85a1.81,1.81,0,0,0-3.61,0v26.27a1.81,1.81,0,0,0,3.61,0Z" style="fill:#8CA5E0"></path><g style="opacity:0.2"><path d="M92.38,104.12V77.85a1.81,1.81,0,0,0-3.61,0v26.27a1.81,1.81,0,0,0,3.61,0Z"></path></g><path d="M150.18,77.37V67c0-3.18-4.93-3.19-4.93,0V77.37c0,3.18,4.93,3.18,4.93,0Z" style="fill:#8CA5E0"></path><g style="opacity:0.4"><path d="M150.18,77.37V67c0-3.18-4.93-3.19-4.93,0V77.37c0,3.18,4.93,3.18,4.93,0Z"></path></g><path d="M159.65,120.21l-9.23-15a2.46,2.46,0,0,0-.93-.91,3.3,3.3,0,0,0-3.56,0,2.33,2.33,0,0,0-.91.88l-9.23,15a3.15,3.15,0,0,0,2.7,4.81H157a3.17,3.17,0,0,0,2.7-4.81Zm-1.92,2.09a.85.85,0,0,1-.78.48H138.49a.92.92,0,0,1-.78-1.39l9.23-15a.92.92,0,0,1,1.56,0l9.23,15A.8.8,0,0,1,157.73,122.3Z" style="fill:#8CA5E0"></path><path d="M153.94,122.1H141.49a1.8,1.8,0,0,0,0,3.6h12.45a1.8,1.8,0,0,0,0-3.6Z" style="fill:#8CA5E0"></path><g style="opacity:0.2"><path d="M153.94,122.1H141.49a1.8,1.8,0,0,0,0,3.6h12.45a1.8,1.8,0,0,0,0-3.6Z"></path></g><path d="M149.52,104.12V77.85a1.81,1.81,0,0,0-3.61,0v26.27a1.81,1.81,0,0,0,3.61,0Z" style="fill:#8CA5E0"></path><g style="opacity:0.2"><path d="M149.52,104.12V77.85a1.81,1.81,0,0,0-3.61,0v26.27a1.81,1.81,0,0,0,3.61,0Z"></path></g><path d="M267.25,77.37V67c0-3.18-4.94-3.19-4.94,0V77.37c0,3.18,4.94,3.18,4.94,0Z" style="fill:#8CA5E0"></path><g style="opacity:0.4"><path d="M267.25,77.37V67c0-3.18-4.94-3.19-4.94,0V77.37c0,3.18,4.94,3.18,4.94,0Z"></path></g><path d="M276.71,120.21l-9.23-15a2.32,2.32,0,0,0-.93-.91,3.3,3.3,0,0,0-3.56,0,2.33,2.33,0,0,0-.91.88l-9.22,15a3.14,3.14,0,0,0,2.69,4.81H274a3.14,3.14,0,0,0,2.7-4.81Zm-1.89,2.09a.94.94,0,0,1-.81.48H255.55a.9.9,0,0,1-.8-.48.87.87,0,0,1,0-.91l9.23-15a.87.87,0,0,1,.78-.43.89.89,0,0,1,.79.43l9.22,15A.86.86,0,0,1,274.82,122.3Z" style="fill:#8CA5E0"></path><path d="M271,122.1H258.56a1.8,1.8,0,0,0,0,3.6H271a1.8,1.8,0,0,0,0-3.6Z" style="fill:#8CA5E0"></path><g style="opacity:0.2"><path d="M271,122.1H258.56a1.8,1.8,0,0,0,0,3.6H271a1.8,1.8,0,0,0,0-3.6Z"></path></g><path d="M266.59,104.12V77.85a1.81,1.81,0,0,0-3.61,0v26.27a1.81,1.81,0,0,0,3.61,0Z" style="fill:#8CA5E0"></path><g style="opacity:0.2"><path d="M266.59,104.12V77.85a1.81,1.81,0,0,0-3.61,0v26.27a1.81,1.81,0,0,0,3.61,0Z"></path></g></g></svg>