<svg xmlns="http://www.w3.org/2000/svg" viewBox="0 0 500 500"><g id="freepik--background-complete--inject-2"><rect x="416.78" y="398.49" width="33.12" height="0.25" style="fill:#ebebeb"></rect><rect x="322.53" y="401.21" width="8.69" height="0.25" style="fill:#ebebeb"></rect><rect x="396.59" y="389.21" width="19.19" height="0.25" style="fill:#ebebeb"></rect><rect x="52.46" y="390.89" width="43.19" height="0.25" style="fill:#ebebeb"></rect><rect x="104.56" y="390.89" width="6.33" height="0.25" style="fill:#ebebeb"></rect><rect x="131.47" y="395.11" width="93.68" height="0.25" style="fill:#ebebeb"></rect><path d="M191.6,337.5H149.78a16.28,16.28,0,0,1-16.25-17.15l3.25-60.87A16.29,16.29,0,0,1,153,244.07h35.31a16.27,16.27,0,0,1,16.25,15.41l3.26,60.87A16.29,16.29,0,0,1,191.6,337.5Z" style="fill:#f5f5f5"></path><path d="M234.42,354.13H138.83a5.79,5.79,0,0,1-5.79-5.79h0a8,8,0,0,1,8-7.95h91.27a8,8,0,0,1,8,7.95h0A5.79,5.79,0,0,1,234.42,354.13Z" style="fill:#f5f5f5"></path><path d="M143.52,320.35l3.25-60.87A16.29,16.29,0,0,1,163,244.07H153a16.29,16.29,0,0,0-16.26,15.41l-3.25,60.87a16.28,16.28,0,0,0,16.25,17.15h10A16.28,16.28,0,0,1,143.52,320.35Z" style="fill:#ebebeb"></path><path d="M191.91,348.54a8.12,8.12,0,0,0-7.95-8.15H141a8,8,0,0,0-8,7.95,5.79,5.79,0,0,0,5.79,5.79l47.29.2A5.79,5.79,0,0,0,191.91,348.54Z" style="fill:#ebebeb"></path><path d="M107.29,337.5H65.48a16.28,16.28,0,0,1-16.26-17.15l3.26-60.87a16.27,16.27,0,0,1,16.25-15.41H104a16.27,16.27,0,0,1,16.25,15.41l3.26,60.87A16.28,16.28,0,0,1,107.29,337.5Z" style="fill:#f5f5f5"></path><path d="M150.11,354.13H54.52a5.78,5.78,0,0,1-5.78-5.79h0a7.94,7.94,0,0,1,7.94-7.95H148a8,8,0,0,1,8,7.95h0A5.79,5.79,0,0,1,150.11,354.13Z" style="fill:#f5f5f5"></path><path d="M59.21,320.35l3.26-60.87a16.27,16.27,0,0,1,16.25-15.41h-10a16.27,16.27,0,0,0-16.25,15.41l-3.26,60.87A16.28,16.28,0,0,0,65.48,337.5h10A16.28,16.28,0,0,1,59.21,320.35Z" style="fill:#ebebeb"></path><path d="M107.6,348.54a8.12,8.12,0,0,0-7.95-8.15h-43a7.94,7.94,0,0,0-7.94,7.95,5.78,5.78,0,0,0,5.78,5.79l47.29.2A5.79,5.79,0,0,0,107.6,348.54Z" style="fill:#ebebeb"></path><polygon points="53.01 103.47 62.21 95.92 202.41 95.92 209.64 104.09 209.64 219.59 199.59 227.56 61.03 227.56 53.01 218.88 53.01 103.47" style="fill:#f0f0f0"></polygon><path d="M202.4,95.92H189.54A11.45,11.45,0,0,1,201,107.37V216.1a11.46,11.46,0,0,1-11.45,11.46H202.4l7.24-8V104.09Z" style="fill:#fafafa"></path><path d="M198.5,93.08H64.43a14.31,14.31,0,0,0-14.28,14.3V216.1a14.29,14.29,0,0,0,14.27,14.28H198.5a12.08,12.08,0,0,0,1.71-.12,14.26,14.26,0,0,0,12.58-14.16V167.47l0-60.09A14.33,14.33,0,0,0,198.5,93.08Zm8.63,87.4V216.1a8.64,8.64,0,0,1-7.79,8.58c-.26,0-.55,0-.83,0H64.43a8.65,8.65,0,0,1-8.63-8.62V107.38a8.64,8.64,0,0,1,8.63-8.63H198.51a8.65,8.65,0,0,1,8.62,8.63v73.1Z" style="fill:#e0e0e0"></path><path d="M71.5,127s51.34,7.87,51-5.66-20.77-12.9-25.5-7.24-11.34-2.52-15.75,2.2S70.24,120.07,71.5,127Z" style="fill:#fff"></path><path d="M154.29,165s33.31,5.1,33.08-3.67-13.47-8.37-16.54-4.7-7.35-1.63-10.21,1.43S153.48,160.52,154.29,165Z" style="fill:#fff"></path><path d="M167.7,129.6s23.28,3.78,27.06-3.14-5-11-9.44-6S172.73,119.53,167.7,129.6Z" style="fill:#fff"></path><polygon points="101.32 165.31 101.32 157 80.12 157 80.12 165.31 73.51 165.31 73.51 224.82 107.93 224.82 107.93 165.31 101.32 165.31" style="fill:#e6e6e6"></polygon><rect x="75.72" y="167.52" width="4.41" height="4.41" style="fill:#fff"></rect><rect x="84.25" y="167.52" width="4.41" height="4.41" style="fill:#fff"></rect><rect x="92.78" y="167.52" width="4.41" height="4.41" style="fill:#fff;opacity:0.2"></rect><rect x="101.32" y="167.52" width="4.41" height="4.41" style="fill:#fff"></rect><rect x="75.72" y="175.52" width="4.41" height="4.41" style="fill:#fff;opacity:0.2"></rect><rect x="84.25" y="175.52" width="4.41" height="4.41" style="fill:#fff"></rect><rect x="92.78" y="175.52" width="4.41" height="4.41" style="fill:#fff"></rect><rect x="101.32" y="175.52" width="4.41" height="4.41" style="fill:#fff;opacity:0.2"></rect><rect x="75.72" y="183.53" width="4.41" height="4.41" style="fill:#fff"></rect><rect x="84.25" y="183.53" width="4.41" height="4.41" style="fill:#fff;opacity:0.2"></rect><rect x="92.78" y="183.53" width="4.41" height="4.41" style="fill:#fff"></rect><rect x="84.25" y="160.6" width="4.41" height="4.41" style="fill:#fff"></rect><rect x="92.78" y="160.6" width="4.41" height="4.41" style="fill:#fff"></rect><rect x="101.32" y="183.53" width="4.41" height="4.41" style="fill:#fff"></rect><rect x="75.72" y="191.53" width="4.41" height="4.41" style="fill:#fff"></rect><rect x="84.25" y="191.53" width="4.41" height="4.41" style="fill:#fff;opacity:0.2"></rect><rect x="92.78" y="191.53" width="4.41" height="4.41" style="fill:#fff"></rect><rect x="101.32" y="191.53" width="4.41" height="4.41" style="fill:#fff"></rect><rect x="75.72" y="199.54" width="4.41" height="4.41" style="fill:#fff"></rect><rect x="84.25" y="199.54" width="4.41" height="4.41" style="fill:#fff"></rect><rect x="92.78" y="199.54" width="4.41" height="4.41" style="fill:#fff;opacity:0.2"></rect><rect x="101.32" y="199.54" width="4.41" height="4.41" style="fill:#fff"></rect><rect x="75.72" y="207.54" width="4.41" height="4.41" style="fill:#fff"></rect><rect x="84.25" y="207.54" width="4.41" height="4.41" style="fill:#fff;opacity:0.2"></rect><rect x="92.78" y="207.54" width="4.41" height="4.41" style="fill:#fff"></rect><rect x="101.32" y="207.54" width="4.41" height="4.41" style="fill:#fff;opacity:0.2"></rect><rect x="75.72" y="215.55" width="4.41" height="4.41" style="fill:#fff;opacity:0.2"></rect><rect x="84.25" y="215.55" width="4.41" height="4.41" style="fill:#fff"></rect><rect x="92.78" y="215.55" width="4.41" height="4.41" style="fill:#fff"></rect><rect x="101.32" y="215.55" width="4.41" height="4.41" style="fill:#fff"></rect><polygon points="189.41 192.46 189.41 187.93 177.88 187.93 177.88 192.46 174.29 192.46 174.29 224.82 193.01 224.82 193.01 192.46 189.41 192.46" style="fill:#e6e6e6"></polygon><rect x="175.49" y="193.65" width="2.4" height="2.4" style="fill:#fff"></rect><rect x="180.13" y="193.65" width="2.4" height="2.4" style="fill:#fff"></rect><rect x="184.77" y="193.65" width="2.4" height="2.4" style="fill:#fff"></rect><rect x="189.41" y="193.65" width="2.4" height="2.4" style="fill:#fff"></rect><rect x="175.49" y="198.01" width="2.4" height="2.4" style="fill:#fff"></rect><rect x="180.13" y="198.01" width="2.4" height="2.4" style="fill:#fff"></rect><rect x="184.77" y="198.01" width="2.4" height="2.4" style="fill:#fff"></rect><rect x="189.41" y="198.01" width="2.4" height="2.4" style="fill:#fff;opacity:0.2"></rect><rect x="175.49" y="202.36" width="2.4" height="2.4" style="fill:#fff"></rect><rect x="180.13" y="202.36" width="2.4" height="2.4" style="fill:#fff"></rect><rect x="184.77" y="202.36" width="2.4" height="2.4" style="fill:#fff"></rect><rect x="180.13" y="189.89" width="2.4" height="2.4" style="fill:#fff"></rect><rect x="184.77" y="189.89" width="2.4" height="2.4" style="fill:#fff;opacity:0.2"></rect><rect x="189.41" y="202.36" width="2.4" height="2.4" style="fill:#fff"></rect><rect x="175.49" y="206.72" width="2.4" height="2.4" style="fill:#fff"></rect><rect x="180.13" y="206.72" width="2.4" height="2.4" style="fill:#fff"></rect><rect x="184.77" y="206.72" width="2.4" height="2.4" style="fill:#fff;opacity:0.2"></rect><rect x="189.41" y="206.72" width="2.4" height="2.4" style="fill:#fff"></rect><rect x="175.49" y="211.07" width="2.4" height="2.4" style="fill:#fff"></rect><rect x="180.13" y="211.07" width="2.4" height="2.4" style="fill:#fff"></rect><rect x="184.77" y="211.07" width="2.4" height="2.4" style="fill:#fff"></rect><rect x="189.41" y="211.07" width="2.4" height="2.4" style="fill:#fff"></rect><rect x="175.49" y="215.42" width="2.4" height="2.4" style="fill:#fff"></rect><rect x="180.13" y="215.42" width="2.4" height="2.4" style="fill:#fff"></rect><rect x="184.77" y="215.42" width="2.4" height="2.4" style="fill:#fff"></rect><rect x="189.41" y="215.42" width="2.4" height="2.4" style="fill:#fff;opacity:0.2"></rect><rect x="175.49" y="219.78" width="2.4" height="2.4" style="fill:#fff"></rect><rect x="180.13" y="219.78" width="2.4" height="2.4" style="fill:#fff"></rect><rect x="184.77" y="219.78" width="2.4" height="2.4" style="fill:#fff"></rect><rect x="189.41" y="219.78" width="2.4" height="2.4" style="fill:#fff;opacity:0.2"></rect><rect x="111.21" y="199.49" width="25" height="25.32" style="fill:#e6e6e6"></rect><rect x="112.81" y="201.09" width="3.2" height="3.2" style="fill:#fff"></rect><rect x="119.01" y="201.09" width="3.2" height="3.2" style="fill:#fff"></rect><rect x="125.21" y="201.09" width="3.2" height="3.2" style="fill:#fff;opacity:0.5"></rect><rect x="131.41" y="201.09" width="3.2" height="3.2" style="fill:#fff"></rect><rect x="112.81" y="206.91" width="3.2" height="3.2" style="fill:#fff"></rect><rect x="119.01" y="206.91" width="3.2" height="3.2" style="fill:#fff;opacity:0.5"></rect><rect x="125.21" y="206.91" width="3.2" height="3.2" style="fill:#fff"></rect><rect x="131.41" y="206.91" width="3.2" height="3.2" style="fill:#fff;opacity:0.5"></rect><rect x="112.81" y="212.73" width="3.2" height="3.2" style="fill:#fff;opacity:0.5"></rect><rect x="119.01" y="212.73" width="3.2" height="3.2" style="fill:#fff"></rect><rect x="125.21" y="212.73" width="3.2" height="3.2" style="fill:#fff;opacity:0.5"></rect><rect x="131.41" y="212.73" width="3.2" height="3.2" style="fill:#fff"></rect><rect x="112.81" y="218.54" width="3.2" height="3.2" style="fill:#fff"></rect><rect x="119.01" y="218.54" width="3.2" height="3.2" style="fill:#fff;opacity:0.5"></rect><rect x="125.21" y="218.54" width="3.2" height="3.2" style="fill:#fff;opacity:0.5"></rect><rect x="131.41" y="218.54" width="3.2" height="3.2" style="fill:#fff"></rect><rect x="254.96" y="84.38" width="194.94" height="298.14" rx="9.63" style="fill:#f5f5f5"></rect><rect x="254.13" y="347.26" width="195.78" height="20.21" style="fill:#e6e6e6"></rect><rect x="348.26" y="84.38" width="8.94" height="297.81" style="fill:#e0e0e0"></rect><path d="M324.44,96.51H280.7a10.14,10.14,0,0,0-10.15,10.15V211.49a10.15,10.15,0,0,0,10.15,10.16h43.74a10.16,10.16,0,0,0,10.15-10.16V106.66A10.15,10.15,0,0,0,324.44,96.51Zm3.65,112.43a7.37,7.37,0,0,1-7.37,7.37H284.07a7.36,7.36,0,0,1-7.36-7.37V109.43a7.36,7.36,0,0,1,7.36-7.36h36.65a7.37,7.37,0,0,1,7.37,7.36Z" style="fill:#e0e0e0"></path><path d="M328.09,109.43v99.51a7.37,7.37,0,0,1-7.37,7.37H284.07a7.36,7.36,0,0,1-7.36-7.37V109.43a7.36,7.36,0,0,1,7.36-7.36h36.65A7.37,7.37,0,0,1,328.09,109.43Z" style="fill:#f0f0f0"></path><rect x="284.35" y="179.68" width="36.45" height="36.93" style="fill:#e6e6e6"></rect><rect x="286.68" y="182.01" width="4.67" height="4.67" style="fill:#fff"></rect><rect x="295.72" y="182.01" width="4.67" height="4.67" style="fill:#fff"></rect><rect x="304.76" y="182.01" width="4.67" height="4.67" style="fill:#fff;opacity:0.5"></rect><rect x="313.8" y="182.01" width="4.67" height="4.67" style="fill:#fff"></rect><rect x="286.68" y="190.49" width="4.67" height="4.67" style="fill:#fff"></rect><rect x="295.72" y="190.49" width="4.67" height="4.67" style="fill:#fff;opacity:0.5"></rect><rect x="304.76" y="190.49" width="4.67" height="4.67" style="fill:#fff"></rect><rect x="313.8" y="190.49" width="4.67" height="4.67" style="fill:#fff;opacity:0.5"></rect><rect x="286.68" y="198.97" width="4.67" height="4.67" style="fill:#fff;opacity:0.5"></rect><rect x="295.72" y="198.97" width="4.67" height="4.67" style="fill:#fff"></rect><rect x="304.76" y="198.97" width="4.67" height="4.67" style="fill:#fff;opacity:0.5"></rect><rect x="313.8" y="198.97" width="4.67" height="4.67" style="fill:#fff"></rect><rect x="286.68" y="207.45" width="4.67" height="4.67" style="fill:#fff"></rect><rect x="295.72" y="207.45" width="4.67" height="4.67" style="fill:#fff;opacity:0.5"></rect><rect x="304.76" y="207.45" width="4.67" height="4.67" style="fill:#fff;opacity:0.5"></rect><rect x="313.8" y="207.45" width="4.67" height="4.67" style="fill:#fff"></rect><path d="M425.6,96.51H381.86a10.14,10.14,0,0,0-10.15,10.15V211.49a10.15,10.15,0,0,0,10.15,10.16H425.6a10.16,10.16,0,0,0,10.15-10.16V106.66A10.15,10.15,0,0,0,425.6,96.51Zm3.65,112.43a7.37,7.37,0,0,1-7.37,7.37H385.23a7.36,7.36,0,0,1-7.36-7.37V109.43a7.36,7.36,0,0,1,7.36-7.36h36.65a7.37,7.37,0,0,1,7.37,7.36Z" style="fill:#e0e0e0"></path><path d="M429.25,109.43v99.51a7.37,7.37,0,0,1-7.37,7.37H385.23a7.36,7.36,0,0,1-7.36-7.37V109.43a7.36,7.36,0,0,1,7.36-7.36h36.65A7.37,7.37,0,0,1,429.25,109.43Z" style="fill:#f0f0f0"></path><path d="M412.27,159.52v56.79h-27a7.36,7.36,0,0,1-7.36-7.37V159.52h6.6v-8.31h21.19v8.31Z" style="fill:#e6e6e6"></path><rect x="380.06" y="161.73" width="4.41" height="4.41" style="fill:#fff"></rect><rect x="388.59" y="161.73" width="4.41" height="4.41" style="fill:#fff"></rect><rect x="397.12" y="161.73" width="4.41" height="4.41" style="fill:#fff;opacity:0.2"></rect><rect x="405.66" y="161.73" width="4.41" height="4.41" style="fill:#fff"></rect><rect x="380.06" y="169.73" width="4.41" height="4.41" style="fill:#fff;opacity:0.2"></rect><rect x="388.59" y="169.73" width="4.41" height="4.41" style="fill:#fff"></rect><rect x="397.12" y="169.73" width="4.41" height="4.41" style="fill:#fff"></rect><rect x="405.66" y="169.73" width="4.41" height="4.41" style="fill:#fff;opacity:0.2"></rect><rect x="380.06" y="177.74" width="4.41" height="4.41" style="fill:#fff"></rect><rect x="388.59" y="177.74" width="4.41" height="4.41" style="fill:#fff;opacity:0.2"></rect><rect x="397.12" y="177.74" width="4.41" height="4.41" style="fill:#fff"></rect><rect x="388.59" y="154.81" width="4.41" height="4.41" style="fill:#fff"></rect><rect x="397.12" y="154.81" width="4.41" height="4.41" style="fill:#fff"></rect><rect x="405.66" y="177.74" width="4.41" height="4.41" style="fill:#fff"></rect><rect x="380.06" y="185.74" width="4.41" height="4.41" style="fill:#fff"></rect><rect x="388.59" y="185.74" width="4.41" height="4.41" style="fill:#fff;opacity:0.2"></rect><rect x="397.12" y="185.74" width="4.41" height="4.41" style="fill:#fff"></rect><rect x="405.66" y="185.74" width="4.41" height="4.41" style="fill:#fff"></rect><rect x="380.06" y="193.75" width="4.41" height="4.41" style="fill:#fff"></rect><rect x="388.59" y="193.75" width="4.41" height="4.41" style="fill:#fff"></rect><rect x="397.12" y="193.75" width="4.41" height="4.41" style="fill:#fff;opacity:0.2"></rect><rect x="405.66" y="193.75" width="4.41" height="4.41" style="fill:#fff"></rect><rect x="380.06" y="201.75" width="4.41" height="4.41" style="fill:#fff"></rect><rect x="388.59" y="201.75" width="4.41" height="4.41" style="fill:#fff;opacity:0.2"></rect><rect x="397.12" y="201.75" width="4.41" height="4.41" style="fill:#fff"></rect><rect x="405.66" y="201.75" width="4.41" height="4.41" style="fill:#fff;opacity:0.2"></rect><rect x="380.06" y="209.76" width="4.41" height="4.41" style="fill:#fff;opacity:0.2"></rect><rect x="388.59" y="209.76" width="4.41" height="4.41" style="fill:#fff"></rect><rect x="397.12" y="209.76" width="4.41" height="4.41" style="fill:#fff"></rect><rect x="405.66" y="209.76" width="4.41" height="4.41" style="fill:#fff"></rect><path d="M393.57,131.34s33.3,5.1,33.08-3.68-13.47-8.36-16.54-4.69-7.35-1.63-10.21,1.43S392.76,126.85,393.57,131.34Z" style="fill:#fff"></path><rect x="416.78" y="398.49" width="33.12" height="0.25" style="fill:#ebebeb"></rect><rect x="322.53" y="401.21" width="8.69" height="0.25" style="fill:#ebebeb"></rect><rect x="396.59" y="389.21" width="19.19" height="0.25" style="fill:#ebebeb"></rect><rect x="52.46" y="390.89" width="43.19" height="0.25" style="fill:#ebebeb"></rect><rect x="104.56" y="390.89" width="6.33" height="0.25" style="fill:#ebebeb"></rect><rect x="131.47" y="395.11" width="93.68" height="0.25" style="fill:#ebebeb"></rect><path d="M238.4,337.8H45.3a5.71,5.71,0,0,1-5.71-5.71V60.66A5.71,5.71,0,0,1,45.3,55H238.4a5.71,5.71,0,0,1,5.71,5.71V332.09A5.71,5.71,0,0,1,238.4,337.8ZM45.3,55.2a5.47,5.47,0,0,0-5.46,5.46V332.09a5.47,5.47,0,0,0,5.46,5.46H238.4a5.47,5.47,0,0,0,5.46-5.46V60.66a5.47,5.47,0,0,0-5.46-5.46Z" style="fill:#ebebeb"></path><path d="M454.7,337.8H261.6a5.71,5.71,0,0,1-5.71-5.71V60.66A5.71,5.71,0,0,1,261.6,55H454.7a5.71,5.71,0,0,1,5.71,5.71V332.09A5.71,5.71,0,0,1,454.7,337.8ZM261.6,55.2a5.47,5.47,0,0,0-5.46,5.46V332.09a5.47,5.47,0,0,0,5.46,5.46H454.7a5.47,5.47,0,0,0,5.46-5.46V60.66a5.47,5.47,0,0,0-5.46-5.46Z" style="fill:#ebebeb"></path><rect y="382.4" width="500" height="0.25" style="fill:#ebebeb"></rect></g><g id="freepik--Shadow--inject-2"><ellipse id="freepik--path--inject-2" cx="250" cy="412.39" rx="193.89" ry="11.32" style="fill:#f5f5f5"></ellipse></g><g id="freepik--speech-bubble--inject-2"><path d="M370,93.4H288.29a7.8,7.8,0,0,0-7.78,7.78v43.13a7.8,7.8,0,0,0,7.77,7.77h3l-2.85,5.77c-1.34,3.25.38,2.14,6.11.24l17.41-6h58a7.78,7.78,0,0,0,7.76-7.76V101.17A7.79,7.79,0,0,0,370,93.4Z" style="fill:#7879FD"></path><g style="opacity:0.6000000000000001"><path d="M370,93.4H288.29a7.8,7.8,0,0,0-7.78,7.78v43.13a7.8,7.8,0,0,0,7.77,7.77h3l-2.85,5.77c-1.34,3.25.38,2.14,6.11.24l17.41-6h58a7.78,7.78,0,0,0,7.76-7.76V101.17A7.79,7.79,0,0,0,370,93.4Z" style="fill:#fff"></path></g></g><g id="freepik--Text--inject-2"><path d="M307.08,120.28v14h-3.26l-6.18-7.45v7.45h-3.88v-14H297l6.18,7.46v-7.46Z" style="fill:#263238"></path><path d="M321.11,131.22v3.05H309.87v-14h11v3.06h-7.06v2.36H320v3h-6.22v2.56Z" style="fill:#263238"></path><path d="M345.05,120.28l-4.54,14h-4.23l-2.68-8.51-2.8,8.51h-4.24l-4.53-14h4.07l2.82,8.94,3-8.94h3.64l2.82,9,2.93-9Z" style="fill:#263238"></path><path d="M345.49,133l1.3-2.91a8.83,8.83,0,0,0,4.62,1.38c1.63,0,2.27-.46,2.27-1.14,0-2.22-7.95-.6-7.95-5.8,0-2.5,2-4.54,6.2-4.54a10.47,10.47,0,0,1,5.07,1.22l-1.22,2.94a8.27,8.27,0,0,0-3.87-1.08c-1.66,0-2.26.56-2.26,1.26,0,2.14,7.93.54,7.93,5.7,0,2.43-2,4.51-6.19,4.51A11,11,0,0,1,345.49,133Z" style="fill:#263238"></path><path d="M300.56,115.1v1.17h-6.79v-9.36h6.6v1.16h-5.26V111h4.69v1.13h-4.69v3Z" style="fill:#263238"></path><path d="M308.5,116.27l-2.81-3.87-2.77,3.87h-1.53l3.51-4.8-3.3-4.56h1.52l2.62,3.59,2.6-3.59h1.45l-3.3,4.52,3.54,4.84Z" style="fill:#263238"></path><path d="M310.51,111.59a4.74,4.74,0,0,1,5-4.79,4.64,4.64,0,0,1,3.56,1.46l-.87.84a3.46,3.46,0,0,0-2.63-1.11,3.6,3.6,0,1,0,0,7.19,3.47,3.47,0,0,0,2.63-1.12l.87.84a4.62,4.62,0,0,1-3.57,1.47A4.73,4.73,0,0,1,310.51,111.59Z" style="fill:#263238"></path><path d="M320.94,106.91h1.34v9.36h-1.34Z" style="fill:#263238"></path><path d="M326.94,108.07h-3.21v-1.16h7.74v1.16h-3.21v8.2h-1.32Z" style="fill:#263238"></path><path d="M332.93,106.91h1.34v9.36h-1.34Z" style="fill:#263238"></path><path d="M345.12,106.91v9.36H344l-5.61-7v7h-1.34v-9.36h1.1l5.61,7v-7Z" style="fill:#263238"></path><path d="M354.41,111.53h1.28v3.65a5.52,5.52,0,0,1-3.54,1.19,4.79,4.79,0,1,1,0-9.57,4.68,4.68,0,0,1,3.59,1.45l-.83.82a3.73,3.73,0,0,0-2.71-1.08,3.6,3.6,0,1,0,0,7.19,4,4,0,0,0,2.19-.6Z" style="fill:#263238"></path><path d="M360.15,131.56a2.43,2.43,0,0,1,2.88-2,2.44,2.44,0,0,1-.79,4.82A2.45,2.45,0,0,1,360.15,131.56Zm4.26-24.11,4.26.69L365,126.05l-2.86-.46Z" style="fill:#263238"></path><rect x="292.5" y="139.12" width="73.13" height="2.82" style="fill:#7879FD"></rect></g><g id="freepik--Symbols--inject-2"><path d="M236.54,108.25a1,1,0,0,1-1-1v-6.81a1,1,0,0,1,2,0v6.81A1,1,0,0,1,236.54,108.25Z" style="fill:#7879FD"></path><path d="M236.54,112a1,1,0,0,1-1-1v-.74a1,1,0,0,1,2,0V111A1,1,0,0,1,236.54,112Z" style="fill:#7879FD"></path><path d="M232.17,113.28a1,1,0,0,1-.86-.5l-3.79-6.55a1,1,0,1,1,1.74-1l3.78,6.55a1,1,0,0,1-.87,1.5Z" style="fill:#7879FD"></path><path d="M240.91,113.28a1,1,0,0,1-.86-1.5l3.8-6.55a1,1,0,0,1,1.36-.37,1,1,0,0,1,.37,1.37l-3.8,6.56A1,1,0,0,1,240.91,113.28Z" style="fill:#7879FD"></path></g></svg>